<?xml version="1.0" standalone="no"?>
<!DOCTYPE svg PUBLIC "-//W3C//DTD SVG 20010904//EN"
 "http://www.w3.org/TR/2001/REC-SVG-20010904/DTD/svg10.dtd">
<svg version="1.0" xmlns="http://www.w3.org/2000/svg"
 width="700.000000pt" height="700.000000pt" viewBox="0 0 700.000000 700.000000"
 preserveAspectRatio="xMidYMid meet">
<metadata>
Created by potrace 1.14, written by Peter Selinger 2001-2017
</metadata>
<g transform="translate(0.000000,700.000000) scale(0.100000,-0.100000)"
fill="#000000" stroke="none">
<path d="M0 3500 l0 -3500 3500 0 3500 0 0 3500 0 3500 -3500 0 -3500 0 0
-3500z m5762 2493 c50 -29 71 -66 76 -132 5 -68 -15 -121 -57 -150 -14 -10
-78 -37 -141 -60 -63 -23 -225 -89 -360 -146 -135 -56 -294 -124 -355 -149
-60 -26 -153 -69 -205 -96 -52 -28 -175 -90 -272 -140 -201 -102 -444 -245
-563 -330 -147 -106 -285 -264 -256 -293 17 -17 235 -21 351 -7 140 17 460 83
610 125 165 46 384 99 525 126 141 28 166 30 210 20 118 -27 167 -108 135
-223 -19 -67 -94 -122 -351 -254 -206 -107 -512 -280 -710 -401 -63 -39 -161
-95 -284 -163 -33 -18 -134 -80 -225 -138 -91 -57 -187 -118 -215 -135 -126
-77 -329 -218 -534 -370 -46 -34 -127 -93 -181 -132 -53 -38 -124 -92 -157
-120 -33 -27 -109 -88 -169 -135 -158 -124 -248 -203 -439 -383 -250 -236
-276 -266 -396 -445 -157 -236 -266 -460 -329 -677 -49 -168 -80 -205 -174
-205 -36 0 -52 6 -80 30 -81 72 -80 206 4 443 103 292 225 490 430 702 58 61
136 146 173 191 81 99 448 452 577 555 52 41 149 117 215 167 66 51 152 119
190 152 39 34 151 122 250 197 99 75 213 163 253 195 41 32 117 84 170 115 54
31 192 116 307 188 116 72 258 160 317 195 59 35 106 65 105 67 -2 2 -53 -6
-113 -17 -120 -23 -406 -29 -501 -11 -193 37 -283 88 -340 194 -27 50 -25 207
5 271 67 147 273 364 500 525 293 208 453 297 891 495 283 129 306 139 474
217 227 105 368 158 444 167 81 9 153 0 195 -25z"/>
</g>
</svg>
