<?xml version="1.0" standalone="no"?>
<!DOCTYPE svg PUBLIC "-//W3C//DTD SVG 20010904//EN"
 "http://www.w3.org/TR/2001/REC-SVG-20010904/DTD/svg10.dtd">
<svg version="1.0" xmlns="http://www.w3.org/2000/svg"
 width="1511.653715pt" height="350.920050pt" viewBox="0 0 1511.653715 350.920050"
 preserveAspectRatio="xMidYMid meet">
<metadata>
Created by potrace 1.12, written by Peter Selinger 2001-2015
</metadata>
<g transform="translate(-168.346285,431.920050) scale(0.100000,-0.100000)"
fill="#000000" stroke="none">
<path d="M4675 4296 c-39 -14 -131 -52 -205 -86 -74 -34 -233 -107 -352 -161
-406 -184 -615 -315 -809 -509 -138 -138 -179 -207 -179 -302 0 -138 86 -204
296 -229 87 -10 243 -3 349 18 28 5 -49 -46 -330 -218 -233 -143 -324 -208
-547 -389 -71 -58 -153 -123 -183 -146 -241 -184 -454 -379 -595 -546 -43 -51
-99 -112 -123 -135 -51 -48 -151 -191 -194 -278 -17 -33 -46 -103 -66 -155
-65 -175 -70 -261 -20 -320 20 -25 32 -30 67 -30 61 0 88 33 121 145 39 137
119 302 215 448 73 111 111 156 236 278 199 194 328 303 613 516 276 206 563
397 791 525 58 33 164 95 235 138 181 108 337 195 493 275 142 73 187 111 198
170 7 39 -8 84 -36 110 -52 47 -135 37 -540 -66 -129 -33 -287 -69 -350 -80
-125 -22 -335 -28 -352 -11 -15 15 40 90 108 149 83 72 231 162 488 296 245
128 402 197 855 375 60 23 86 61 86 122 0 109 -113 149 -270 96z"/>
<path d="M12332 2998 l3 -573 103 -3 102 -3 0 250 0 249 33 48 c37 56 108 104
163 110 52 7 102 -22 128 -72 19 -36 21 -60 24 -312 l3 -273 102 3 102 3 3
240 c4 291 -8 408 -46 479 -46 86 -124 122 -244 113 -88 -6 -163 -43 -223
-109 l-45 -50 0 236 0 236 -105 0 -105 0 2 -572z"/>
<path d="M6060 3540 c-143 -26 -259 -113 -295 -219 -25 -77 -23 -188 5 -245
40 -84 109 -125 317 -187 167 -50 227 -79 248 -119 30 -58 7 -122 -53 -147
-46 -19 -160 -21 -232 -4 -62 15 -185 69 -230 101 l-29 21 -47 -92 c-53 -107
-57 -97 61 -154 114 -55 222 -79 355 -79 134 0 208 18 285 68 112 73 161 216
120 352 -33 111 -119 170 -346 235 -214 61 -250 84 -251 159 -1 76 49 118 151
127 83 8 211 -29 296 -86 l31 -20 46 87 47 88 -57 31 c-127 70 -305 105 -422
83z"/>
<path d="M9370 2980 l0 -560 105 0 105 0 0 560 0 560 -105 0 -105 0 0 -560z"/>
<path d="M6872 3240 c-40 -10 -100 -34 -132 -51 l-59 -31 31 -62 c17 -33 31
-62 32 -63 2 -2 34 13 72 32 161 83 315 63 358 -45 13 -33 23 -120 14 -120 -2
0 -28 7 -58 15 -80 22 -214 19 -292 -5 -77 -24 -152 -84 -179 -145 -24 -53
-24 -147 0 -200 26 -57 97 -119 161 -140 113 -38 276 3 359 89 l35 36 15 -47
c23 -67 56 -88 137 -86 35 1 68 5 74 8 5 3 10 43 10 89 0 77 -2 84 -24 94 -23
10 -23 12 -28 211 l-5 200 -32 65 c-57 116 -149 166 -316 172 -77 3 -117 0
-173 -16z m277 -441 l41 -12 0 -58 c0 -66 -26 -106 -90 -139 -84 -43 -182 -35
-232 18 -65 69 -33 160 69 198 43 16 146 13 212 -7z"/>
<path d="M7950 3246 c-62 -16 -112 -48 -160 -103 l-40 -46 0 77 0 77 -92 -3
-93 -3 0 -410 0 -410 103 -3 102 -3 0 246 c0 222 2 249 19 283 36 71 119 131
181 132 36 0 86 -34 107 -72 16 -29 18 -66 21 -311 l4 -278 101 3 102 3 5 255
c6 288 7 295 87 356 78 60 166 52 208 -19 18 -29 20 -57 25 -312 l5 -280 103
-3 102 -3 0 289 c0 159 -5 314 -10 343 -16 85 -49 139 -105 174 -45 28 -55 30
-139 29 -75 0 -99 -4 -136 -23 -64 -34 -98 -61 -130 -104 l-28 -39 -19 44
c-24 53 -80 103 -130 117 -50 14 -136 13 -193 -3z"/>
<path d="M9925 3246 c-60 -19 -97 -41 -131 -78 -53 -55 -68 -95 -69 -175 0
-120 35 -150 266 -223 86 -28 167 -58 180 -69 32 -25 30 -75 -4 -109 -55 -54
-225 -36 -340 38 -26 16 -51 30 -55 30 -4 0 -23 -28 -43 -62 l-37 -63 39 -28
c90 -67 238 -104 375 -94 180 13 288 107 288 252 -1 132 -61 180 -313 250
-148 41 -176 63 -164 129 16 82 160 92 297 21 38 -20 72 -32 75 -27 3 5 21 32
40 61 l35 53 -25 19 c-38 30 -119 66 -177 78 -69 14 -186 13 -237 -3z"/>
<path d="M10763 3245 c-80 -22 -131 -52 -190 -111 -158 -157 -162 -429 -9
-592 81 -86 192 -132 321 -132 137 1 236 41 321 133 30 32 54 64 54 70 0 18
-173 62 -179 46 -14 -43 -119 -99 -185 -99 -91 0 -182 64 -210 147 -9 26 -16
50 -16 55 0 4 145 8 321 8 l322 0 -5 94 c-4 77 -10 105 -35 157 -39 81 -86
135 -154 176 -100 60 -241 79 -356 48z m241 -172 c45 -32 83 -91 88 -138 l3
-30 -212 -3 c-209 -2 -213 -2 -213 18 0 57 62 142 125 172 60 28 154 20 209
-19z"/>
<path d="M11810 3244 c-63 -17 -152 -72 -176 -109 -26 -40 -34 -30 -34 45 l0
70 -90 0 -90 0 0 -415 0 -415 100 0 99 0 3 253 3 253 32 43 c102 138 257 144
302 12 7 -22 11 -127 11 -297 l0 -264 105 0 105 0 0 278 c0 371 -13 438 -94
510 -60 53 -163 66 -276 36z"/>
<path d="M13510 3246 c-189 -51 -310 -212 -310 -410 0 -248 179 -425 430 -426
217 0 383 138 421 351 39 222 -91 428 -306 484 -70 18 -172 19 -235 1z m209
-186 c48 -24 95 -79 110 -129 14 -49 14 -143 0 -192 -45 -148 -236 -200 -343
-93 -117 117 -86 347 57 418 45 22 129 20 176 -4z"/>
<path d="M15667 3250 c-141 -36 -257 -145 -298 -282 -32 -106 -25 -232 20
-322 79 -161 233 -246 426 -233 95 6 175 34 240 83 51 40 110 114 98 125 -5 4
-44 17 -87 28 l-80 22 -24 -31 c-59 -76 -193 -100 -282 -50 -52 30 -98 91
-107 143 l-6 37 319 2 319 3 3 42 c12 166 -88 332 -245 405 -57 27 -79 32
-162 34 -53 2 -113 -1 -134 -6z m198 -159 c22 -10 50 -28 62 -40 31 -29 63
-94 63 -126 l0 -25 -208 0 c-115 0 -211 3 -215 6 -9 9 18 89 42 122 29 42 114
82 170 82 26 0 64 -9 86 -19z"/>
<path d="M16697 3246 c-58 -21 -116 -66 -156 -119 l-36 -48 -3 85 -3 86 -94 0
-95 0 0 -415 0 -415 105 0 105 0 0 251 c0 238 1 254 21 285 33 54 110 92 222
109 l37 6 0 94 0 95 -32 0 c-18 -1 -50 -7 -71 -14z"/>
<path d="M14050 3246 c0 -2 75 -183 166 -402 91 -220 169 -405 171 -412 4 -9
28 -12 90 -10 l85 3 65 170 c35 94 68 173 72 178 4 4 33 -62 66 -145 86 -227
71 -208 165 -208 68 0 81 3 90 20 9 17 309 732 331 788 8 22 8 22 -90 22 l-98
0 -118 -302 c-65 -167 -121 -307 -125 -311 -7 -8 -100 226 -100 251 0 7 29 85
65 174 36 89 65 166 65 171 0 4 -37 7 -81 5 l-82 -3 -40 -118 c-22 -65 -43
-114 -47 -110 -4 4 -24 59 -45 121 l-38 112 -83 0 -84 0 21 -52 c11 -29 43
-108 71 -176 l50 -123 -48 -129 c-27 -71 -51 -130 -54 -130 -3 0 -59 138 -125
308 l-121 307 -97 3 c-53 1 -97 1 -97 -2z"/>
<path d="M6577 1938 c-110 -29 -156 -175 -76 -242 17 -14 74 -39 131 -57 143
-44 183 -93 122 -150 -22 -21 -35 -24 -94 -23 -55 0 -80 6 -128 30 l-60 30
-16 -34 -16 -33 54 -25 c73 -33 152 -45 222 -34 103 17 148 68 141 159 -6 79
-41 109 -172 145 -56 15 -110 37 -122 48 -31 29 -30 72 2 103 34 35 132 36
198 1 l45 -24 13 30 c11 27 10 32 -7 45 -51 37 -160 51 -237 31z"/>
<path d="M8777 1936 c-70 -26 -107 -76 -107 -146 0 -83 28 -108 170 -150 98
-29 129 -46 140 -75 24 -63 -42 -112 -135 -101 -27 3 -76 19 -108 34 l-58 29
-14 -28 c-8 -15 -15 -30 -15 -33 0 -14 104 -56 160 -65 154 -25 268 44 257
156 -9 82 -48 113 -192 152 -108 30 -125 42 -125 91 0 30 6 43 26 59 38 30
125 29 187 -3 l47 -23 15 23 c22 34 20 38 -32 63 -60 29 -162 37 -216 17z"/>
<path d="M9775 1937 c-93 -37 -153 -106 -175 -198 -31 -129 40 -276 156 -325
44 -19 146 -18 192 1 20 9 54 33 76 53 134 129 109 355 -50 448 -52 31 -151
41 -199 21z m180 -91 c129 -99 88 -343 -65 -377 -157 -35 -274 149 -194 309
36 73 89 104 166 99 43 -2 65 -10 93 -31z"/>
<path d="M14075 1937 c-94 -38 -147 -100 -171 -200 -15 -58 -15 -69 0 -128 21
-83 59 -136 126 -177 51 -31 60 -33 127 -30 62 3 78 8 117 35 l46 33 0 -35 c0
-32 2 -35 30 -35 l30 0 0 135 0 135 -90 0 c-89 0 -90 0 -90 -25 0 -24 3 -25
60 -25 l60 0 0 -39 c0 -33 -6 -44 -36 -69 -157 -130 -360 26 -300 230 24 85
90 138 171 138 54 0 93 -18 127 -58 l24 -29 28 22 c28 22 28 23 11 49 -31 46
-98 78 -173 82 -39 2 -80 -2 -97 -9z"/>
<path d="M5683 1928 c3 -7 51 -129 108 -270 l103 -258 35 0 36 0 94 238 c52
130 101 252 108 270 l14 33 -42 -3 -42 -3 -81 -217 c-44 -120 -84 -218 -87
-218 -3 0 -36 82 -74 183 -107 287 -91 257 -137 257 -28 0 -39 -4 -35 -12z"/>
<path d="M6270 1670 l0 -270 35 0 35 0 0 270 0 270 -35 0 -35 0 0 -270z"/>
<path d="M6950 1777 c0 -120 4 -178 16 -218 33 -112 101 -163 219 -163 86 0
142 26 184 85 41 56 51 115 51 299 l0 160 -40 0 -40 0 0 -166 c0 -190 -9 -232
-57 -274 -82 -73 -214 -35 -243 70 -5 19 -10 110 -10 203 l0 167 -40 0 -40 0
0 -163z"/>
<path d="M7681 1917 c-6 -14 -53 -133 -105 -266 -53 -132 -96 -243 -96 -246 0
-3 18 -5 39 -5 l39 0 27 75 28 75 112 0 112 0 29 -75 29 -75 37 0 c21 0 38 3
38 8 0 4 -47 124 -104 267 l-103 260 -37 3 c-31 3 -37 -1 -45 -21z m98 -193
c23 -61 41 -114 41 -118 0 -3 -43 -6 -95 -6 -52 0 -95 3 -95 8 0 6 31 91 80
216 6 17 14 26 20 20 4 -5 27 -59 49 -120z"/>
<path d="M8060 1670 l0 -270 185 0 185 0 0 30 0 29 -147 3 -148 3 -3 238 -2
237 -35 0 -35 0 0 -270z"/>
<path d="M9110 1910 l0 -30 95 0 95 0 0 -240 0 -240 40 0 40 0 0 240 0 240 90
0 90 0 0 30 0 30 -225 0 -225 0 0 -30z"/>
<path d="M10220 1671 l0 -271 35 0 35 0 0 95 0 95 73 0 72 0 58 -95 c58 -95
58 -95 98 -95 49 0 50 -5 -24 114 l-55 89 31 21 c48 33 70 70 75 129 5 65 -21
123 -70 159 -30 21 -45 23 -180 26 l-148 3 0 -270z m269 195 c63 -33 70 -149
12 -193 -10 -8 -53 -12 -113 -13 l-98 0 0 103 c0 57 3 107 7 110 13 13 163 7
192 -7z"/>
<path d="M10670 1937 c0 -2 45 -82 100 -176 l100 -172 0 -94 0 -95 35 0 35 0
0 94 0 93 100 173 c55 94 100 173 100 176 0 2 -18 4 -39 4 l-39 0 -78 -140
c-42 -77 -79 -138 -82 -136 -3 3 -37 65 -77 138 l-72 133 -42 3 c-22 2 -41 1
-41 -1z"/>
<path d="M11180 1910 l0 -30 95 0 95 0 0 -240 0 -240 40 0 40 0 0 240 0 240
90 0 90 0 0 30 0 30 -225 0 -225 0 0 -30z"/>
<path d="M11720 1670 l0 -270 185 0 185 0 0 30 0 29 -147 3 -148 3 0 90 0 90
123 3 122 3 0 29 0 30 -125 0 -126 0 3 83 3 82 143 3 142 3 0 29 0 30 -180 0
-180 0 0 -270z"/>
<path d="M12190 1670 l0 -270 190 0 190 0 0 30 0 30 -150 0 -150 0 0 240 0
240 -40 0 -40 0 0 -270z"/>
<path d="M12650 1670 l0 -270 188 0 188 0 -1 28 0 27 -148 5 -148 5 1 238 1
237 -41 0 -40 0 0 -270z"/>
<path d="M13110 1670 l0 -270 40 0 40 0 0 270 0 270 -40 0 -40 0 0 -270z"/>
<path d="M13330 1670 l0 -270 35 0 35 0 0 195 c0 107 3 195 8 195 4 -1 76 -88
161 -195 145 -183 157 -195 188 -195 l33 0 0 270 0 270 -41 0 -40 0 2 -192 c1
-106 -3 -193 -7 -193 -5 0 -78 86 -162 192 -137 172 -157 193 -183 193 l-29 0
0 -270z"/>
</g>
</svg>
